<?xml version="1.0" encoding="UTF-8" standalone="no"?>
<!DOCTYPE svg PUBLIC "-//W3C//DTD SVG 1.1//EN" "http://www.w3.org/Graphics/SVG/1.1/DTD/svg11.dtd">
<svg xmlns="http://www.w3.org/2000/svg" version="1.1" viewBox="0.00 0.00 273.00 341.00">
<g stroke-width="2.00" fill="none" stroke-linecap="butt">
<path stroke="#018165" vector-effect="non-scaling-stroke" d="
  M 143.96 34.17
  C 131.10 44.62 134.23 67.36 138.39 81.66
  Q 138.67 82.62 139.48 82.03
  C 143.88 78.84 145.53 41.06 145.11 34.67
  A 0.71 0.70 68.5 0 0 143.96 34.17"
/>
<path stroke="#055851" vector-effect="non-scaling-stroke" d="
  M 123.03 155.07
  Q 121.23 141.91 120.79 135.24
  C 120.37 128.86 120.91 119.31 119.37 112.63
  C 115.43 95.47 100.48 82.07 87.04 71.70
  Q 85.29 70.35 83.25 69.54"
/>
<path stroke="#018165" vector-effect="non-scaling-stroke" d="
  M 83.25 69.54
  L 74.53 63.19
  Q 74.05 62.83 74.07 63.43
  C 75.23 92.36 84.02 127.41 104.54 148.97
  Q 111.96 156.76 124.59 161.98
  Q 125.10 162.20 124.95 161.67
  L 123.03 155.07"
/>
<path stroke="#059c78" vector-effect="non-scaling-stroke" d="
  M 83.25 69.54
  Q 86.76 76.80 91.51 89.03
  Q 96.93 103.00 113.01 139.74
  Q 117.08 149.04 123.03 155.07"
/>
<path stroke="#018165" vector-effect="non-scaling-stroke" d="
  M 178.94 85.69
  Q 164.27 100.94 162.90 120.73
  C 162.57 125.56 162.61 135.45 162.40 142.75
  C 162.22 149.00 159.79 155.27 158.72 161.55
  Q 158.60 162.21 159.22 161.94
  C 194.85 146.14 206.52 98.59 207.64 63.74
  Q 207.66 63.11 207.11 63.41
  Q 192.50 71.59 178.94 85.69"
/>
</g>
<path fill="#013d3d" d="
  M 134.90 87.86
  C 130.54 84.59 126.94 76.46 124.72 71.56
  C 117.16 54.89 124.00 36.58 137.34 25.06
  C 144.13 19.19 156.35 15.68 158.27 28.70
  C 161.05 47.57 157.30 64.20 149.69 81.44
  C 147.05 87.41 141.41 92.73 134.90 87.86
  Z
  M 143.96 34.17
  C 131.10 44.62 134.23 67.36 138.39 81.66
  Q 138.67 82.62 139.48 82.03
  C 143.88 78.84 145.53 41.06 145.11 34.67
  A 0.71 0.70 68.5 0 0 143.96 34.17
  Z"
/>
<path fill="#01c58c" d="
  M 138.39 81.66
  C 134.23 67.36 131.10 44.62 143.96 34.17
  A 0.71 0.70 68.5 0 1 145.11 34.67
  C 145.53 41.06 143.88 78.84 139.48 82.03
  Q 138.67 82.62 138.39 81.66
  Z"
/>
<path fill="#013d3d" d="
  M 118.14 77.74
  C 130.25 90.68 135.56 102.43 135.86 120.21
  Q 136.32 147.16 135.71 174.11
  Q 135.70 174.65 135.16 174.66
  Q 126.40 174.86 117.85 174.22
  C 108.18 173.49 98.33 166.92 91.83 160.17
  C 65.68 132.98 56.74 92.63 57.90 55.25
  C 58.21 45.24 65.90 41.71 74.30 45.49
  C 91.28 53.13 105.50 64.23 118.14 77.74
  Z
  M 123.03 155.07
  Q 121.23 141.91 120.79 135.24
  C 120.37 128.86 120.91 119.31 119.37 112.63
  C 115.43 95.47 100.48 82.07 87.04 71.70
  Q 85.29 70.35 83.25 69.54
  L 74.53 63.19
  Q 74.05 62.83 74.07 63.43
  C 75.23 92.36 84.02 127.41 104.54 148.97
  Q 111.96 156.76 124.59 161.98
  Q 125.10 162.20 124.95 161.67
  L 123.03 155.07
  Z"
/>
<path fill="#013d3d" d="
  M 205.29 46.52
  C 213.75 42.03 222.55 43.67 223.53 54.54
  C 225.50 76.31 220.78 99.99 213.75 120.54
  Q 207.08 140.02 194.00 155.61
  C 186.94 164.04 174.66 173.37 163.31 174.15
  Q 154.81 174.74 147.43 174.43
  Q 145.79 174.36 145.79 172.72
  Q 145.75 145.96 145.73 120.74
  C 145.71 88.17 178.71 60.62 205.29 46.52
  Z
  M 178.94 85.69
  Q 164.27 100.94 162.90 120.73
  C 162.57 125.56 162.61 135.45 162.40 142.75
  C 162.22 149.00 159.79 155.27 158.72 161.55
  Q 158.60 162.21 159.22 161.94
  C 194.85 146.14 206.52 98.59 207.64 63.74
  Q 207.66 63.11 207.11 63.41
  Q 192.50 71.59 178.94 85.69
  Z"
/>
<path fill="#01c58c" d="
  M 83.25 69.54
  Q 86.76 76.80 91.51 89.03
  Q 96.93 103.00 113.01 139.74
  Q 117.08 149.04 123.03 155.07
  L 124.95 161.67
  Q 125.10 162.20 124.59 161.98
  Q 111.96 156.76 104.54 148.97
  C 84.02 127.41 75.23 92.36 74.07 63.43
  Q 74.05 62.83 74.53 63.19
  L 83.25 69.54
  Z"
/>
<path fill="#01c58c" d="
  M 178.94 85.69
  Q 192.50 71.59 207.11 63.41
  Q 207.66 63.11 207.64 63.74
  C 206.52 98.59 194.85 146.14 159.22 161.94
  Q 158.60 162.21 158.72 161.55
  C 159.79 155.27 162.22 149.00 162.40 142.75
  C 162.61 135.45 162.57 125.56 162.90 120.73
  Q 164.27 100.94 178.94 85.69
  Z"
/>
<path fill="#097364" d="
  M 83.25 69.54
  Q 85.29 70.35 87.04 71.70
  C 100.48 82.07 115.43 95.47 119.37 112.63
  C 120.91 119.31 120.37 128.86 120.79 135.24
  Q 121.23 141.91 123.03 155.07
  Q 117.08 149.04 113.01 139.74
  Q 96.93 103.00 91.51 89.03
  Q 86.76 76.80 83.25 69.54
  Z"
/>
<path fill="#013d3d" d="
  M 63.38 245.23
  L 60.76 244.70
  A 2.18 2.14 69.3 0 1 59.79 244.25
  Q 56.14 241.31 53.74 237.31
  Q 51.79 234.07 50.75 228.30
  Q 47.98 213.03 47.53 197.47
  C 47.27 188.76 51.75 183.78 60.47 183.77
  C 117.47 183.68 158.61 184.20 204.29 183.75
  Q 215.42 183.64 216.17 183.77
  C 224.44 185.28 227.77 192.80 227.16 200.78
  C 226.58 208.53 223.47 248.23 209.14 244.91
  Q 207.97 244.64 207.79 245.83
  Q 203.86 270.74 199.57 295.53
  C 197.68 306.49 195.44 314.25 185.52 318.45
  C 181.77 320.05 177.09 319.01 174.08 319.01
  Q 132.61 319.00 91.14 318.99
  C 79.28 318.99 74.50 308.75 72.64 298.46
  C 69.66 281.99 67.87 264.42 64.16 246.01
  A 0.99 0.99 0.0 0 0 63.38 245.23
  Z
  M 209.57 199.53
  L 65.95 199.43
  A 0.67 0.67 0.0 0 0 65.28 200.09
  C 65.16 204.63 64.85 229.98 71.81 229.99
  Q 134.13 230.03 196.44 229.75
  Q 199.89 229.74 203.39 229.47
  Q 203.90 229.43 204.27 229.09
  C 209.88 223.88 210.25 207.80 210.06 200.01
  Q 210.05 199.53 209.57 199.53
  Z
  M 190.03 245.03
  L 82.57 244.99
  A 0.86 0.85 85.5 0 0 81.72 245.99
  Q 85.13 267.22 88.64 287.84
  C 89.71 294.13 88.21 302.56 97.47 302.69
  Q 135.87 303.25 174.27 302.67
  C 177.94 302.62 181.68 301.92 182.31 298.01
  Q 186.48 271.78 190.72 245.85
  A 0.70 0.70 0.0 0 0 190.03 245.03
  Z"
/>
</svg>
